<svg width="20" height="20" viewBox="0 0 32 32" fill="none" xmlns="http://www.w3.org/2000/svg">
<g clip-path="url(#clip0_308_165494)">
<path d="M12.8176 31.924C13.2409 32.1049 13.7331 31.9539 13.9804 31.5633L25.2304 13.6883C25.4125 13.399 25.4235 13.0337 25.2587 12.7352C25.0939 12.4359 24.779 12.25 24.4375 12.25H16.9292L19.7216 1.16817C19.8342 0.720485 19.6062 0.25811 19.1824 0.0759225C18.7612 -0.105328 18.2659 0.04661 18.0196 0.43661L6.76961 18.3116C6.58742 18.6009 6.57642 18.9662 6.74123 19.2647C6.90605 19.564 7.22098 19.7499 7.56248 19.7499H15.0707L12.2784 30.8317C12.1657 31.2795 12.3937 31.7418 12.8176 31.924Z" fill="url(#paint0_linear_308_165494)"/>
<path fill-rule="evenodd" clip-rule="evenodd" d="M24.6662 13.333C24.7197 13.2482 24.722 13.1424 24.6751 13.0575C24.6277 12.9713 24.5362 12.9167 24.4375 12.9167H16.0737L19.0751 1.00553C19.0751 1.00544 19.0751 1.00561 19.0751 1.00553C19.1079 0.874507 19.0414 0.740968 18.9191 0.68841C18.7987 0.63659 18.6545 0.680435 18.5836 0.792067C18.5835 0.792245 18.5837 0.791889 18.5836 0.792067L7.33383 18.6667C7.28039 18.7516 7.27796 18.8575 7.32482 18.9424C7.37231 19.0286 7.46377 19.0833 7.56248 19.0833H15.9262L12.9249 30.9944C12.8919 31.1254 12.9583 31.2585 13.0803 31.3113C13.204 31.3637 13.3453 31.3195 13.4167 31.2072C13.4169 31.2071 13.4166 31.2074 13.4167 31.2072L24.6662 13.333ZM13.9804 31.5633C13.7331 31.9539 13.2409 32.1049 12.8176 31.924C12.3937 31.7418 12.1657 31.2795 12.2784 30.8317L15.0707 19.7499H7.56248C7.22098 19.7499 6.90605 19.564 6.74123 19.2647C6.57642 18.9662 6.58742 18.6009 6.76961 18.3116L18.0196 0.43661C18.2659 0.04661 18.7612 -0.105328 19.1824 0.0759225C19.6062 0.25811 19.8342 0.720485 19.7216 1.16817L16.9292 12.25H24.4375C24.779 12.25 25.0939 12.4359 25.2587 12.7352C25.4235 13.0337 25.4125 13.399 25.2304 13.6883L13.9804 31.5633Z" fill="url(#paint1_linear_308_165494)"/>
</g>
<defs>
<linearGradient id="paint0_linear_308_165494" x1="16" y1="-6.10352e-05" x2="16" y2="31.9999" gradientUnits="userSpaceOnUse">
<stop stop-color="#ED1C24"/>
<stop offset="0.28125" stop-color="#FBC02F"/>
<stop offset="0.5" stop-color="#FFF66C"/>
<stop offset="0.755208" stop-color="#FBC02F"/>
<stop offset="1" stop-color="#ED1C24"/>
</linearGradient>
<linearGradient id="paint1_linear_308_165494" x1="16" y1="-6.10352e-05" x2="16" y2="31.9999" gradientUnits="userSpaceOnUse">
<stop stop-color="#FFF554"/>
<stop offset="0.385417" stop-color="#FFCB07"/>
<stop offset="0.630208" stop-color="#FFCB07"/>
<stop offset="1" stop-color="#FFF554"/>
</linearGradient>
<clipPath id="clip0_308_165494">
<rect width="32" height="32" fill="white"/>
</clipPath>
</defs>
</svg>
